
        <svg xmlns="http://www.w3.org/2000/svg" xmlns:xlink="http://www.w3.org/1999/xlink" version="1.1" width="3272.727272727273" 
        height="2524.83133268077" viewBox="0 0 3272.727272727273 2524.83133268077">
			
			<g transform="scale(13.636363636363637) translate(10, 10)">
				<defs id="SvgjsDefs8247"><linearGradient id="SvgjsLinearGradient8254"><stop id="SvgjsStop8255" stop-color="#b98947" offset="0"></stop><stop id="SvgjsStop8256" stop-color="#faf0a1" offset="1"></stop></linearGradient></defs><g id="SvgjsG8248" featureKey="CGau9U-0" transform="matrix(1.1111111111111112,0,0,1.1111111111111112,60,0)" fill="url(#SvgjsLinearGradient8254)"><path xmlns="http://www.w3.org/2000/svg" fill="url(#SvgjsLinearGradient8254)" d="M89.209,0.791C88.707,0.288,88.011,0,87.3,0H2.7C1.988,0,1.293,0.288,0.79,0.791C0.288,1.293,0,1.988,0,2.7  v84.6c0,0.712,0.288,1.407,0.792,1.908C1.293,89.712,1.988,90,2.7,90h84.6c0.711,0,1.407-0.288,1.909-0.792  C89.711,88.707,90,88.01,90,87.3V2.7C90,1.99,89.711,1.295,89.209,0.791z M84.6,45.02h-9.925c2.114,2.121,3.424,5.048,3.424,8.279  c0,6.479-5.251,11.729-11.729,11.729S54.64,59.777,54.64,53.298c0-3.23,1.31-6.157,3.427-8.278H44.979v-0.002h0.045V31.931  c2.121,2.116,5.047,3.425,8.28,3.425c6.479,0,11.728-5.251,11.728-11.729c0-6.479-5.249-11.73-11.728-11.73  c-3.232,0-6.159,1.31-8.28,3.424V5.398h39.574L84.6,45.02z M5.398,44.982h9.928c-2.114-2.121-3.424-5.048-3.424-8.28  c0-6.479,5.251-11.728,11.73-11.728c6.478,0,11.729,5.25,11.729,11.728c0,3.232-1.309,6.159-3.426,8.28h13.087v0.002h-0.045v13.087  c-2.121-2.116-5.048-3.425-8.28-3.425c-6.479,0-11.728,5.251-11.728,11.729c0,6.479,5.249,11.729,11.728,11.729  c3.232,0,6.159-1.311,8.28-3.425v9.92H5.398V44.982z"></path></g><g id="SvgjsG8249" featureKey="zSuAwM-0" transform="matrix(1.4608233139697349,0,0,1.4608233139697349,-0.7304109604100297,114.36122216132328)" fill="#cbb26b"><path d="M4.56 7.58 c4 0 6.58 1.98 6.58 6.2 c0 3.74 -2.44 6.22 -5.74 6.22 c-1.02 0 -1.96 -0.26 -2.54 -0.26 c-0.78 0 -1.32 0.02 -2.36 0.26 l0 -0.4 c1 -0.26 1.36 -0.42 1.36 -0.92 l0 -9.54 c0 -0.58 -0.22 -1.06 -1.36 -1.18 l0 -0.38 c1.64 0.08 2.58 0 4.06 0 z M5.26 19.46 c3.28 0.08 4.38 -2.28 4.38 -5.62 c0 -3.04 -1.32 -5.88 -4.78 -5.8 c-0.46 0 -0.94 0 -1.56 0.04 l0 10.28 c0 0.86 0.82 1.08 1.96 1.1 z M16.36 5.4 c-0.4 0 -0.78 -0.34 -0.78 -0.78 c0 -0.4 0.38 -0.76 0.78 -0.76 s0.8 0.36 0.8 0.76 c0 0.44 -0.4 0.78 -0.8 0.78 z M19.7 5.4 c-0.4 0 -0.78 -0.34 -0.78 -0.78 c0 -0.4 0.38 -0.76 0.78 -0.76 c0.42 0 0.8 0.36 0.8 0.76 c0 0.44 -0.38 0.78 -0.8 0.78 z M17.98 7.26 c3.28 0 5.48 2.94 5.48 6.48 c0 3.64 -2.06 6.48 -5.34 6.48 s-5.48 -2.94 -5.48 -6.48 c0 -3.64 2.06 -6.48 5.34 -6.48 z M18.28 19.78 c1.72 0 3.62 -1.1 3.62 -5.44 c0 -3.94 -1.8 -6.64 -4.24 -6.64 c-1.56 0 -3.46 1.1 -3.46 5.44 c0 3.94 1.8 6.64 4.08 6.64 z M31.52 17.259999999999998 c1.14 1.5 2.44 2.48 3.08 2.52 l-0.3 0.38 c-1.72 0 -2.72 -0.98 -4.06 -2.62 l-2.14 -2.68 c-0.08 0 -0.16 0.02 -0.24 0.02 l-0.6 0.06 l0 3.96 c0 0.5 0.34 0.64 1.36 0.72 l0 0.38 c-1.38 -0.06 -2.78 -0.06 -4.16 0 l0 -0.38 c1.02 -0.08 1.36 -0.22 1.36 -0.72 l0 -9.68 c0 -0.62 -0.22 -1.14 -1.36 -1.26 l0 -0.38 c1.64 0.08 3.38 0 4.72 0 c3.9 0 4.6 1.82 4.6 3.34 c0 1.36 -1 3 -4.22 3.7 z M27.26 14.48 l0.7 -0.1 c3.4 -0.46 4.22 -1.88 4.22 -3.54 c0 -1.42 -0.84 -2.76 -2.9 -2.76 l-2.02 0 l0 6.4 z M38.239999999999995 18.88 c0 0.5 0.38 0.62 1.4 0.74 l0 0.38 c-1.38 -0.06 -2.86 -0.06 -4.24 0 l0 -0.38 c1.02 -0.12 1.4 -0.24 1.4 -0.74 l0 -10.18 c0 -0.5 -0.38 -0.62 -1.4 -0.74 l0 -0.38 c1.38 0.06 2.86 0.06 4.24 0 l0 0.38 c-1.02 0.12 -1.4 0.24 -1.4 0.74 l0 10.18 z M47.9 7.58 c1.28 0.06 2.58 0.06 3.9 0 l0 0.38 c-1.28 0.14 -1.7 0.24 -1.7 0.74 l0 11.3 l-0.36 0 l-7.04 -11.08 l0 9.96 c0 0.5 0.42 0.6 1.64 0.74 l0 0.38 c-1.28 -0.06 -2.56 -0.06 -3.9 0 l0 -0.38 c1.36 -0.14 1.72 -0.24 1.72 -0.74 l0 -10.14 c0 -0.58 -0.46 -0.66 -1.48 -0.78 l0 -0.38 c0.98 0.06 1.94 0.06 2.94 0 l5.94 9.44 l0 -8.32 c0 -0.5 -0.36 -0.6 -1.66 -0.74 l0 -0.38 z M58.96 14.16 c1.24 0.04 3.18 0.04 4.28 -0.04 l0 0.38 l-0.54 0.1 c-0.9 0.16 -0.78 1.02 -0.78 2.66 c0 0.62 0.02 1.28 0.06 1.78 l0.38 0.04 c0.06 0.02 0.08 0.08 0.08 0.1 l0 0.4 c-0.28 -0.06 -0.56 -0.06 -0.74 -0.06 c-1.2 0 -1.74 0.7 -3.96 0.7 c-3.36 0 -5.64 -2.94 -5.64 -6.52 c0 -3.64 2.14 -6.44 5.4 -6.44 c1.36 0 1.64 0.34 2.9 0.34 l0.42 0 c0.26 1.12 0.54 2.12 1.1 3.36 l-0.64 0 c-0.82 -2.08 -1.88 -3.26 -4.12 -3.26 c-1.52 0 -3.5 1.1 -3.5 5.44 c0 3.94 1.88 6.64 4.12 6.64 c2.72 0 2.78 -0.88 2.78 -3.6 c0 -1.34 0.1 -1.52 -1.14 -1.62 l-0.46 -0.06 l0 -0.34 z M78.30000000000001 16.66 l0.5 0 c-0.44 1.72 -1.64 3.56 -4.5 3.56 c-3.24 0 -5.56 -2.94 -5.56 -6.52 c0 -3.64 2.14 -6.44 5.42 -6.44 c1.4 0 1.7 0.34 2.96 0.34 l0.42 0 c0.26 1.12 0.54 2.12 1.1 3.36 l-0.64 0 c-0.82 -2.08 -2 -3.26 -4.36 -3.26 c-1.36 0 -3.34 1.1 -3.34 5.44 c0 3.98 1.74 6.54 4.06 6.54 c2.12 0 3.3 -1.06 3.94 -3.02 z M83.84 9.82 c2.36 0 4.34 1.98 4.34 5.08 c0 3.26 -1.98 5.3 -4.24 5.3 c-2.36 0 -4.34 -2.04 -4.34 -5.14 c0 -3.26 1.98 -5.24 4.24 -5.24 z M86.58 15.26 c0 -2.9 -1.18 -5.02 -3.04 -5.02 c-1.46 0 -2.38 1.26 -2.38 4.42 c0 2.96 1.18 5.08 3.04 5.08 c1.44 0 2.38 -1.28 2.38 -4.48 z M97.58 18.88 c0 0.5 0.54 0.66 1.14 0.74 l0 0.38 c-1.2 -0.06 -2.44 -0.06 -3.66 0 l0 -0.38 c0.62 -0.1 1.14 -0.24 1.14 -0.74 l0 -5.72 c0 -1.68 -0.4 -2.76 -1.54 -2.76 c-1.6 0 -2.78 1.48 -3.02 1.8 l0 6.68 c0 0.5 0.54 0.64 1.14 0.74 l0 0.38 c-1.22 -0.06 -2.44 -0.06 -3.66 0 l0 -0.38 c0.62 -0.08 1.12 -0.24 1.12 -0.74 l0 -7.26 c0 -0.62 -0.36 -0.82 -1.16 -0.74 l0 -0.38 c1.3 -0.18 1.88 -0.7 2.22 -0.7 c0.2 0 0.36 0.12 0.34 0.34 l-0.18 1.76 c0.34 -0.52 1.66 -2.1 3.46 -2.1 c1.7 0 2.66 0.7 2.66 3.4 l0 5.68 z M106.11999999999999 17.36 c0 1.64 -1.5 2.82 -2.84 2.82 c-1.24 0 -1.8 -0.64 -2.56 -0.64 c-0.34 0 -0.52 0.22 -0.58 0.44 l-0.36 0 l-0.22 -2.6 l0.12 0 c0.2 0 0.44 0 0.46 0.22 c0.22 1.16 2 2.14 3.04 2.14 c1.02 0 1.66 -0.7 1.66 -1.7 c0 -1.26 -1.08 -1.76 -2.78 -2.68 c-1.54 -0.84 -2.44 -1.76 -2.44 -3.14 c0 -1.2 1.04 -2.4 2.68 -2.4 c1.18 0 1.62 0.56 2.2 0.56 c0.2 0 0.38 -0.12 0.48 -0.4 l0.38 0 l0.18 2.4 l-0.18 0 c-0.22 0 -0.24 -0.08 -0.32 -0.22 c-0.56 -1.02 -1.72 -1.96 -2.68 -1.96 c-1.08 0 -1.56 0.82 -1.56 1.62 c0 1.04 0.66 1.54 1.98 2.26 c1.32 0.7 3.34 1.56 3.34 3.28 z M115.41999999999999 18.42 c0 0.66 0.36 0.8 1.14 0.72 l0 0.4 c-1.38 0.3 -1.7 0.68 -2.24 0.68 c-0.18 0 -0.28 -0.16 -0.26 -0.36 l0.16 -2.1 c-0.4 0.54 -1.6 2.46 -3.36 2.46 c-1.68 0 -2.78 -0.78 -2.78 -3.48 l0 -5.46 c0 -0.58 -0.16 -0.78 -0.56 -0.76 l-0.6 0.02 l0 -0.44 l2.14 -0.2 c0.26 -0.02 0.4 0.06 0.4 0.32 l0 6.66 c0 1.66 0.48 2.66 1.68 2.66 c1.66 0 2.66 -1.82 2.88 -2.2 l0 -6.06 c0 -0.58 -0.12 -0.78 -0.52 -0.76 l-0.64 0.02 l0 -0.44 l2.14 -0.2 c0.34 -0.02 0.42 0.06 0.42 0.32 l0 8.2 z M119.31999999999998 18.7 c0 0.66 0.36 0.86 1.14 0.74 l0 0.36 c-1.38 0.32 -1.72 0.42 -2.22 0.42 c-0.2 0 -0.32 -0.12 -0.32 -0.36 l0 -11.86 c0 -0.62 -0.36 -0.82 -1.16 -0.74 l0 -0.38 c1.3 -0.18 1.88 -0.7 2.24 -0.7 c0.18 0 0.32 0.1 0.32 0.38 l0 12.14 z M126.01999999999998 19.36 c-0.26 0.34 -0.94 0.78 -1.7 0.78 c-1.14 0 -2.06 -0.52 -2.06 -2.28 l0 -7.4 l-0.96 0 c-0.06 0 -0.14 -0.06 -0.14 -0.12 l0 -0.24 c0 -0.06 0.08 -0.12 0.14 -0.12 c1.12 0 1.6 -0.78 1.88 -2.72 l0.46 0 l0 2.72 l2.3 0 c0.06 0 0.14 0.06 0.14 0.12 l0 0.24 c0 0.06 -0.08 0.12 -0.14 0.12 l-2.3 0 l0 7.78 c0 0.64 0.26 1.3 1.08 1.3 c0.7 0 1.12 -0.48 1.3 -0.78 l0 0.6 z M128.77999999999997 7.800000000000001 c-0.42 0 -0.8 -0.34 -0.8 -0.78 c0 -0.4 0.38 -0.76 0.8 -0.76 c0.4 0 0.8 0.36 0.8 0.76 c0 0.44 -0.4 0.78 -0.8 0.78 z M129.64 18.88 c0 0.5 0.54 0.66 1.14 0.74 l0 0.38 c-1.24 -0.06 -2.44 -0.06 -3.68 0 l0 -0.38 c0.64 -0.08 1.14 -0.24 1.14 -0.74 l0 -7.38 c0 -0.62 -0.36 -0.82 -1.16 -0.8 l0 -0.38 c1.32 -0.16 1.86 -0.54 2.18 -0.54 c0.28 0 0.5 0.08 0.5 0.44 c0 0.38 -0.12 1.06 -0.12 2.28 l0 6.38 z M139.98 18.88 c0 0.5 0.54 0.66 1.14 0.74 l0 0.38 c-1.2 -0.06 -2.44 -0.06 -3.66 0 l0 -0.38 c0.62 -0.1 1.14 -0.24 1.14 -0.74 l0 -5.72 c0 -1.68 -0.4 -2.76 -1.54 -2.76 c-1.6 0 -2.78 1.48 -3.02 1.8 l0 6.68 c0 0.5 0.54 0.64 1.14 0.74 l0 0.38 c-1.22 -0.06 -2.44 -0.06 -3.66 0 l0 -0.38 c0.62 -0.08 1.12 -0.24 1.12 -0.74 l0 -7.26 c0 -0.62 -0.36 -0.82 -1.16 -0.74 l0 -0.38 c1.3 -0.18 1.88 -0.7 2.22 -0.7 c0.2 0 0.36 0.12 0.34 0.34 l-0.18 1.76 c0.34 -0.52 1.66 -2.1 3.46 -2.1 c1.7 0 2.66 0.7 2.66 3.4 l0 5.68 z M150.29999999999998 9.84 c0.8 0 0.8 0.26 0.8 0.7 c0 0.46 -0.14 0.58 -0.48 0.54 c-0.42 -0.06 -0.64 -0.12 -0.82 -0.12 c-0.48 0 -0.58 0.32 -0.44 0.66 c0.24 0.54 0.38 1.08 0.38 1.7 c0 1.82 -1.32 3.58 -3.62 3.58 c-0.74 0 -1.38 -0.28 -2.14 -0.28 c-0.68 0 -0.94 0.34 -0.94 0.66 c0 0.56 0.76 0.78 2.02 0.98 l2.56 0.38 c2.04 0.32 3.06 0.98 3.06 2.6 c0 1.88 -1.96 3.1 -4.38 3.1 c-2.64 0 -4.34 -1.06 -4.34 -2.92 c0 -0.78 0.22 -1.5 0.98 -1.5 c0.5 0 0.68 0.28 0.68 0.64 c0 0.48 -0.2 0.66 -0.2 1.5 c0 0.98 1.12 1.88 2.9 1.88 c2.32 0 3.14 -1.1 3.14 -2.54 c0 -1.06 -0.66 -1.32 -2.02 -1.56 l-2.92 -0.46 c-1.9 -0.34 -2.5 -0.92 -2.5 -1.72 c0 -0.86 0.82 -1.5 2.2 -1.34 c-1.06 -0.62 -1.78 -1.72 -1.78 -3 c0 -1.8 1.12 -3.5 3.6 -3.5 c1.6 0 2.48 0.78 2.94 1.38 c0.16 -0.78 0.54 -1.36 1.32 -1.36 z M146.1 16.46 c1.62 0 2.2 -1.64 2.2 -3.1 s-0.6 -3.12 -2.2 -3.12 c-1.58 0 -2.2 1.66 -2.2 3.12 s0.6 3.1 2.2 3.1 z"></path></g><g id="SvgjsG8250" featureKey="fF8Cqn-0" transform="matrix(0.39709531234974743,0,0,0.39709531234974743,1.7220331677452967,157.11708850950234)" fill="#cbb26b"><path d="M10.26 16.66 l0.5 0 c-0.44 1.72 -1.64 3.56 -4.5 3.56 c-3.24 0 -5.56 -2.94 -5.56 -6.52 c0 -3.64 2.14 -6.44 5.42 -6.44 c1.4 0 1.7 0.34 2.96 0.34 l0.42 0 c0.26 1.12 0.54 2.12 1.1 3.36 l-0.64 0 c-0.82 -2.08 -2 -3.26 -4.36 -3.26 c-1.36 0 -3.34 1.1 -3.34 5.44 c0 3.98 1.74 6.54 4.06 6.54 c2.12 0 3.3 -1.06 3.94 -3.02 z M22.5175 7.26 c3.28 0 5.48 2.94 5.48 6.48 c0 3.64 -2.06 6.48 -5.34 6.48 s-5.48 -2.94 -5.48 -6.48 c0 -3.64 2.06 -6.48 5.34 -6.48 z M22.8175 19.78 c1.72 0 3.62 -1.1 3.62 -5.44 c0 -3.94 -1.8 -6.64 -4.24 -6.64 c-1.56 0 -3.46 1.1 -3.46 5.44 c0 3.94 1.8 6.64 4.08 6.64 z M41.355 7.58 c1.28 0.06 2.58 0.06 3.9 0 l0 0.38 c-1.28 0.14 -1.7 0.24 -1.7 0.74 l0 11.3 l-0.36 0 l-7.04 -11.08 l0 9.96 c0 0.5 0.42 0.6 1.64 0.74 l0 0.38 c-1.28 -0.06 -2.56 -0.06 -3.9 0 l0 -0.38 c1.36 -0.14 1.72 -0.24 1.72 -0.74 l0 -10.14 c0 -0.58 -0.46 -0.66 -1.48 -0.78 l0 -0.38 c0.98 0.06 1.94 0.06 2.94 0 l5.94 9.44 l0 -8.32 c0 -0.5 -0.36 -0.6 -1.66 -0.74 l0 -0.38 z M57.5725 17.44 c0 -1.84 -1.64 -2.54 -3.04 -3.14 c-1.94 -0.86 -3.5 -1.9 -3.5 -3.84 c0 -1.68 1.22 -3.2 3.62 -3.2 c1.52 0 1.96 0.44 2.42 0.44 c0.2 0 0.34 0 0.44 -0.28 l0.38 0 l0.12 2.5 l-0.24 -0.02 c-0.16 -0.02 -0.22 -0.06 -0.3 -0.24 c-0.46 -1.02 -1.54 -1.94 -2.92 -1.94 c-1.46 0 -2.3 1.04 -2.3 2.24 c0 1.44 0.92 2.08 2.54 2.84 c1.7 0.8 4.18 1.68 4.18 4.1 c0 2.02 -1.86 3.34 -3.92 3.34 c-1.58 0 -2.42 -0.74 -2.96 -0.74 c-0.24 0 -0.46 0.18 -0.54 0.46 l-0.44 0 l-0.16 -2.66 l0.4 0 c0.1 0 0.14 0.08 0.24 0.26 c0.54 1.08 1.5 2.2 3.32 2.2 c1.68 0 2.66 -0.98 2.66 -2.32 z M77.14999999999999 7.960000000000001 c-1.02 0.12 -1.4 0.24 -1.4 0.74 l0 10.18 c0 0.5 0.38 0.62 1.4 0.74 l0 0.38 c-1.38 -0.06 -2.42 -0.06 -3.18 0 l0 -0.38 c0.26 -0.22 0.34 -0.48 0.34 -0.74 l0 -1.1 c-0.56 1.1 -1.9 2.42 -4.12 2.42 c-2.24 0 -3.9 -1.6 -3.9 -3.98 l0 -7.52 c0 -0.5 -0.38 -0.62 -1.4 -0.74 l0 -0.38 c1.38 0.06 2.92 0.06 4.3 0 l0 0.38 c-1.02 0.12 -1.4 0.24 -1.4 0.74 l0 7.58 c0 1.98 1.1 3.32 2.86 3.32 c1.8 0 3.16 -1.46 3.66 -2.54 l0 -8.36 c0 -0.5 -0.38 -0.62 -1.4 -0.74 l0 -0.38 c1.38 0.06 2.86 0.06 4.24 0 l0 0.38 z M91.64749999999998 17.12 l0.44 0 c-0.32 1.04 -0.44 1.9 -0.58 2.88 c-2.88 -0.06 -5.44 -0.06 -8.3 0 l0 -0.5 c1.02 -0.12 1.36 -0.2 1.36 -0.7 l0 -10.1 c0 -0.5 -0.38 -0.62 -1.4 -0.74 l0 -0.38 c1.38 0.06 2.86 0.06 4.24 0 l0 0.38 c-1.02 0.12 -1.4 0.24 -1.4 0.74 l0 10.7 c0 0.06 0.04 0.12 0.12 0.12 l2.86 0 c1.06 0 1.66 -0.4 2.02 -1.14 z M105.92499999999998 7.359999999999999 l0.22 0 l-0.66 2.7 l-0.4 0 c0.12 -1.38 0.1 -2.04 -0.78 -2.04 l-1.98 0 l0 10.86 c0 0.5 0.38 0.62 1.4 0.74 l0 0.38 c-1.38 -0.06 -2.86 -0.06 -4.24 0 l0 -0.38 c1.02 -0.12 1.4 -0.24 1.4 -0.74 l0 -10.86 l-1.72 0 c-0.88 0 -1.08 0.34 -1.92 2.04 l-0.36 0 l0.74 -2.7 l0.22 0 c0.42 0.14 0.62 0.22 1.48 0.22 l5.1 0 c0.88 0 1.08 -0.08 1.5 -0.22 z M115.10249999999998 18.88 c0 0.5 0.38 0.62 1.4 0.74 l0 0.38 c-1.38 -0.06 -2.86 -0.06 -4.24 0 l0 -0.38 c1.02 -0.12 1.4 -0.24 1.4 -0.74 l0 -10.18 c0 -0.5 -0.38 -0.62 -1.4 -0.74 l0 -0.38 c1.38 0.06 2.86 0.06 4.24 0 l0 0.38 c-1.02 0.12 -1.4 0.24 -1.4 0.74 l0 10.18 z M130.07999999999998 7.58 c1.28 0.06 2.58 0.06 3.9 0 l0 0.38 c-1.28 0.14 -1.7 0.24 -1.7 0.74 l0 11.3 l-0.36 0 l-7.04 -11.08 l0 9.96 c0 0.5 0.42 0.6 1.64 0.74 l0 0.38 c-1.28 -0.06 -2.56 -0.06 -3.9 0 l0 -0.38 c1.36 -0.14 1.72 -0.24 1.72 -0.74 l0 -10.14 c0 -0.58 -0.46 -0.66 -1.48 -0.78 l0 -0.38 c0.98 0.06 1.94 0.06 2.94 0 l5.94 9.44 l0 -8.32 c0 -0.5 -0.36 -0.6 -1.66 -0.74 l0 -0.38 z M146.45749999999998 14.16 c1.24 0.04 3.18 0.04 4.28 -0.04 l0 0.38 l-0.54 0.1 c-0.9 0.16 -0.78 1.02 -0.78 2.66 c0 0.62 0.02 1.28 0.06 1.78 l0.38 0.04 c0.06 0.02 0.08 0.08 0.08 0.1 l0 0.4 c-0.28 -0.06 -0.56 -0.06 -0.74 -0.06 c-1.2 0 -1.74 0.7 -3.96 0.7 c-3.36 0 -5.64 -2.94 -5.64 -6.52 c0 -3.64 2.14 -6.44 5.4 -6.44 c1.36 0 1.64 0.34 2.9 0.34 l0.42 0 c0.26 1.12 0.54 2.12 1.1 3.36 l-0.64 0 c-0.82 -2.08 -1.88 -3.26 -4.12 -3.26 c-1.52 0 -3.5 1.1 -3.5 5.44 c0 3.94 1.88 6.64 4.12 6.64 c2.72 0 2.78 -0.88 2.78 -3.6 c0 -1.34 0.1 -1.52 -1.14 -1.62 l-0.46 -0.06 l0 -0.34 z M166.9725 14.64 l5.4 0 l0 0.7 l-5.4 0 l0 -0.7 z M191.54749999999999 18.88 c0 0.5 0.38 0.62 1.4 0.74 l0 0.38 c-1.38 -0.06 -2.86 -0.06 -4.24 0 l0 -0.38 c1.02 -0.12 1.4 -0.24 1.4 -0.74 l0 -10.18 c0 -0.5 -0.38 -0.62 -1.4 -0.74 l0 -0.38 c1.38 0.06 2.86 0.06 4.24 0 l0 0.38 c-1.02 0.12 -1.4 0.24 -1.4 0.74 l0 10.18 z M206.52499999999998 7.58 c1.28 0.06 2.58 0.06 3.9 0 l0 0.38 c-1.28 0.14 -1.7 0.24 -1.7 0.74 l0 11.3 l-0.36 0 l-7.04 -11.08 l0 9.96 c0 0.5 0.42 0.6 1.64 0.74 l0 0.38 c-1.28 -0.06 -2.56 -0.06 -3.9 0 l0 -0.38 c1.36 -0.14 1.72 -0.24 1.72 -0.74 l0 -10.14 c0 -0.58 -0.46 -0.66 -1.48 -0.78 l0 -0.38 c0.98 0.06 1.94 0.06 2.94 0 l5.94 9.44 l0 -8.32 c0 -0.5 -0.36 -0.6 -1.66 -0.74 l0 -0.38 z M225.3825 7.359999999999999 l0.22 0 l-0.66 2.7 l-0.4 0 c0.12 -1.38 0.1 -2.04 -0.78 -2.04 l-1.98 0 l0 10.86 c0 0.5 0.38 0.62 1.4 0.74 l0 0.38 c-1.38 -0.06 -2.86 -0.06 -4.24 0 l0 -0.38 c1.02 -0.12 1.4 -0.24 1.4 -0.74 l0 -10.86 l-1.72 0 c-0.88 0 -1.08 0.34 -1.92 2.04 l-0.36 0 l0.74 -2.7 l0.22 0 c0.42 0.14 0.62 0.22 1.48 0.22 l5.1 0 c0.88 0 1.08 -0.08 1.5 -0.22 z M240.07999999999998 17.08 l0.44 0 c-0.32 1.04 -0.44 1.92 -0.58 2.88 l-8.22 0 l0 -0.5 c1.02 -0.12 1.36 -0.2 1.36 -0.7 l0 -10.08 c0 -0.5 -0.34 -0.64 -1.36 -0.72 l0 -0.38 l7.9 0 c0.26 0 0.3 0.06 0.34 0.36 l0.22 2 l-0.38 0 l-0.2 -0.42 c-0.5 -1.04 -1.2 -1.46 -2.12 -1.46 l-2.84 0 c-0.08 0 -0.12 0.04 -0.12 0.12 l0 5.3 l2.86 0 c1 0 1.12 -0.6 1.3 -1.38 l0.42 0 c-0.1 1.06 -0.1 2.16 0 3.2 l-0.42 0 c-0.18 -0.78 -0.32 -1.34 -1.3 -1.34 l-2.86 0 l0 5.42 c0 0.06 0.04 0.12 0.12 0.12 l2.78 0 c1.06 0 1.66 -0.42 2.02 -1.16 z M253.7975 17.259999999999998 c1.14 1.5 2.44 2.48 3.08 2.52 l-0.3 0.38 c-1.72 0 -2.72 -0.98 -4.06 -2.62 l-2.14 -2.68 c-0.08 0 -0.16 0.02 -0.24 0.02 l-0.6 0.06 l0 3.96 c0 0.5 0.34 0.64 1.36 0.72 l0 0.38 c-1.38 -0.06 -2.78 -0.06 -4.16 0 l0 -0.38 c1.02 -0.08 1.36 -0.22 1.36 -0.72 l0 -9.68 c0 -0.62 -0.22 -1.14 -1.36 -1.26 l0 -0.38 c1.64 0.08 3.38 0 4.72 0 c3.9 0 4.6 1.82 4.6 3.34 c0 1.36 -1 3 -4.22 3.7 z M249.53750000000002 14.48 l0.7 -0.1 c3.4 -0.46 4.22 -1.88 4.22 -3.54 c0 -1.42 -0.84 -2.76 -2.9 -2.76 l-2.02 0 l0 6.4 z M265.835 18.88 c0 0.5 0.38 0.62 1.4 0.74 l0 0.38 c-1.38 -0.06 -2.86 -0.06 -4.24 0 l0 -0.38 c1.02 -0.12 1.4 -0.24 1.4 -0.74 l0 -10.18 c0 -0.5 -0.38 -0.62 -1.4 -0.74 l0 -0.38 c1.38 0.06 2.86 0.06 4.24 0 l0 0.38 c-1.02 0.12 -1.4 0.24 -1.4 0.74 l0 10.18 z M285.5325 18.88 c0 0.5 0.38 0.62 1.4 0.74 l0 0.38 c-1.36 -0.06 -2.86 -0.06 -4.24 0 l0 -0.38 c1.04 -0.12 1.42 -0.24 1.42 -0.74 l0 -9.92 l-4 11.04 l-4.6 -11.08 l0 9.96 c0 0.5 0.42 0.6 1.64 0.74 l0 0.38 c-1.28 -0.06 -2.56 -0.06 -3.8 0 l0 -0.38 c1.26 -0.14 1.62 -0.24 1.62 -0.74 l0 -10.16 c0 -0.56 -0.46 -0.64 -1.48 -0.76 l0 -0.38 c1.02 0.06 2.04 0.06 3.06 0 l4 9.82 l3.54 -9.82 c0.84 0.06 1.92 0.06 2.78 0 l0 0.34 c-0.96 0.12 -1.34 0.26 -1.34 0.76 l0 10.2 z M303.06750000000005 14.64 l5.4 0 l0 0.7 l-5.4 0 l0 -0.7 z M333.6425 7.359999999999999 l0.22 0 l-0.66 2.7 l-0.4 0 c0.12 -1.38 0.1 -2.04 -0.78 -2.04 l-1.98 0 l0 10.86 c0 0.5 0.38 0.62 1.4 0.74 l0 0.38 c-1.38 -0.06 -2.86 -0.06 -4.24 0 l0 -0.38 c1.02 -0.12 1.4 -0.24 1.4 -0.74 l0 -10.86 l-1.72 0 c-0.88 0 -1.08 0.34 -1.92 2.04 l-0.36 0 l0.74 -2.7 l0.22 0 c0.42 0.14 0.62 0.22 1.48 0.22 l5.1 0 c0.88 0 1.08 -0.08 1.5 -0.22 z M347.04 17.259999999999998 c1.14 1.5 2.44 2.48 3.08 2.52 l-0.3 0.38 c-1.72 0 -2.72 -0.98 -4.06 -2.62 l-2.14 -2.68 c-0.08 0 -0.16 0.02 -0.24 0.02 l-0.6 0.06 l0 3.96 c0 0.5 0.34 0.64 1.36 0.72 l0 0.38 c-1.38 -0.06 -2.78 -0.06 -4.16 0 l0 -0.38 c1.02 -0.08 1.36 -0.22 1.36 -0.72 l0 -9.68 c0 -0.62 -0.22 -1.14 -1.36 -1.26 l0 -0.38 c1.64 0.08 3.38 0 4.72 0 c3.9 0 4.6 1.82 4.6 3.34 c0 1.36 -1 3 -4.22 3.7 z M342.78000000000003 14.48 l0.7 -0.1 c3.4 -0.46 4.22 -1.88 4.22 -3.54 c0 -1.42 -0.84 -2.76 -2.9 -2.76 l-2.02 0 l0 6.4 z M366.3175 18.62 c0.18 0.54 0.14 0.86 1.66 1 l0 0.38 c-1.36 -0.06 -2.88 -0.06 -4.24 0 l0 -0.38 c1.68 -0.16 1.24 -0.48 0.94 -1.28 l-0.92 -2.52 l-4.78 0 l-0.94 2.76 c-0.22 0.64 0.38 0.88 1.42 1.04 l0 0.38 c-1.12 -0.06 -2.64 -0.06 -3.72 0 l0 -0.38 c1.18 -0.14 1.56 -0.46 1.88 -1.38 l3.72 -10.76 l0.8 0 z M359.13750000000005 15.36 l4.46 0 l-2.3 -6.28 z M381.255 7.58 c1.28 0.06 2.58 0.06 3.9 0 l0 0.38 c-1.28 0.14 -1.7 0.24 -1.7 0.74 l0 11.3 l-0.36 0 l-7.04 -11.08 l0 9.96 c0 0.5 0.42 0.6 1.64 0.74 l0 0.38 c-1.28 -0.06 -2.56 -0.06 -3.9 0 l0 -0.38 c1.36 -0.14 1.72 -0.24 1.72 -0.74 l0 -10.14 c0 -0.58 -0.46 -0.66 -1.48 -0.78 l0 -0.38 c0.98 0.06 1.94 0.06 2.94 0 l5.94 9.44 l0 -8.32 c0 -0.5 -0.36 -0.6 -1.66 -0.74 l0 -0.38 z M397.47249999999997 17.44 c0 -1.84 -1.64 -2.54 -3.04 -3.14 c-1.94 -0.86 -3.5 -1.9 -3.5 -3.84 c0 -1.68 1.22 -3.2 3.62 -3.2 c1.52 0 1.96 0.44 2.42 0.44 c0.2 0 0.34 0 0.44 -0.28 l0.38 0 l0.12 2.5 l-0.24 -0.02 c-0.16 -0.02 -0.22 -0.06 -0.3 -0.24 c-0.46 -1.02 -1.54 -1.94 -2.92 -1.94 c-1.46 0 -2.3 1.04 -2.3 2.24 c0 1.44 0.92 2.08 2.54 2.84 c1.7 0.8 4.18 1.68 4.18 4.1 c0 2.02 -1.86 3.34 -3.92 3.34 c-1.58 0 -2.42 -0.74 -2.96 -0.74 c-0.24 0 -0.46 0.18 -0.54 0.46 l-0.44 0 l-0.16 -2.66 l0.4 0 c0.1 0 0.14 0.08 0.24 0.26 c0.54 1.08 1.5 2.2 3.32 2.2 c1.68 0 2.66 -0.98 2.66 -2.32 z M413.2699999999999 7.9399999999999995 l0.2 2 l-0.36 0 l-0.2 -0.42 c-0.5 -1.04 -1.2 -1.46 -2.12 -1.46 l-2.88 0 c-0.08 0 -0.12 0.04 -0.12 0.12 l0 5.3 l2.86 0 c1 0 1.12 -0.6 1.3 -1.38 l0.42 0 c-0.1 1.06 -0.1 2.16 0 3.2 l-0.42 0 c-0.18 -0.78 -0.32 -1.34 -1.3 -1.34 l-2.86 0 l0 4.96 c0 0.5 0.34 0.58 1.36 0.7 l0 0.38 c-1.38 -0.06 -2.78 -0.06 -4.16 0 l0 -0.38 c1.02 -0.12 1.36 -0.2 1.36 -0.7 l0 -10.24 c0 -0.5 -0.34 -0.64 -1.36 -0.72 l0 -0.38 l7.94 0 c0.26 0 0.3 0.06 0.34 0.36 z M425.32749999999993 7.26 c3.28 0 5.48 2.94 5.48 6.48 c0 3.64 -2.06 6.48 -5.34 6.48 s-5.48 -2.94 -5.48 -6.48 c0 -3.64 2.06 -6.48 5.34 -6.48 z M425.6274999999999 19.78 c1.72 0 3.62 -1.1 3.62 -5.44 c0 -3.94 -1.8 -6.64 -4.24 -6.64 c-1.56 0 -3.46 1.1 -3.46 5.44 c0 3.94 1.8 6.64 4.08 6.64 z M444.18499999999995 17.259999999999998 c1.14 1.5 2.44 2.48 3.08 2.52 l-0.3 0.38 c-1.72 0 -2.72 -0.98 -4.06 -2.62 l-2.14 -2.68 c-0.08 0 -0.16 0.02 -0.24 0.02 l-0.6 0.06 l0 3.96 c0 0.5 0.34 0.64 1.36 0.72 l0 0.38 c-1.38 -0.06 -2.78 -0.06 -4.16 0 l0 -0.38 c1.02 -0.08 1.36 -0.22 1.36 -0.72 l0 -9.68 c0 -0.62 -0.22 -1.14 -1.36 -1.26 l0 -0.38 c1.64 0.08 3.38 0 4.72 0 c3.9 0 4.6 1.82 4.6 3.34 c0 1.36 -1 3 -4.22 3.7 z M439.92499999999995 14.48 l0.7 -0.1 c3.4 -0.46 4.22 -1.88 4.22 -3.54 c0 -1.42 -0.84 -2.76 -2.9 -2.76 l-2.02 0 l0 6.4 z M465.36249999999995 18.88 c0 0.5 0.38 0.62 1.4 0.74 l0 0.38 c-1.36 -0.06 -2.86 -0.06 -4.24 0 l0 -0.38 c1.04 -0.12 1.42 -0.24 1.42 -0.74 l0 -9.92 l-4 11.04 l-4.6 -11.08 l0 9.96 c0 0.5 0.42 0.6 1.64 0.74 l0 0.38 c-1.28 -0.06 -2.56 -0.06 -3.8 0 l0 -0.38 c1.26 -0.14 1.62 -0.24 1.62 -0.74 l0 -10.16 c0 -0.56 -0.46 -0.64 -1.48 -0.76 l0 -0.38 c1.02 0.06 2.04 0.06 3.06 0 l4 9.82 l3.54 -9.82 c0.84 0.06 1.92 0.06 2.78 0 l0 0.34 c-0.96 0.12 -1.34 0.26 -1.34 0.76 l0 10.2 z M483.1599999999999 18.62 c0.18 0.54 0.14 0.86 1.66 1 l0 0.38 c-1.36 -0.06 -2.88 -0.06 -4.24 0 l0 -0.38 c1.68 -0.16 1.24 -0.48 0.94 -1.28 l-0.92 -2.52 l-4.78 0 l-0.94 2.76 c-0.22 0.64 0.38 0.88 1.42 1.04 l0 0.38 c-1.12 -0.06 -2.64 -0.06 -3.72 0 l0 -0.38 c1.18 -0.14 1.56 -0.46 1.88 -1.38 l3.72 -10.76 l0.8 0 z M475.97999999999996 15.36 l4.46 0 l-2.3 -6.28 z M499.6774999999999 7.359999999999999 l0.22 0 l-0.66 2.7 l-0.4 0 c0.12 -1.38 0.1 -2.04 -0.78 -2.04 l-1.98 0 l0 10.86 c0 0.5 0.38 0.62 1.4 0.74 l0 0.38 c-1.38 -0.06 -2.86 -0.06 -4.24 0 l0 -0.38 c1.02 -0.12 1.4 -0.24 1.4 -0.74 l0 -10.86 l-1.72 0 c-0.88 0 -1.08 0.34 -1.92 2.04 l-0.36 0 l0.74 -2.7 l0.22 0 c0.42 0.14 0.62 0.22 1.48 0.22 l5.1 0 c0.88 0 1.08 -0.08 1.5 -0.22 z M508.8549999999999 18.88 c0 0.5 0.38 0.62 1.4 0.74 l0 0.38 c-1.38 -0.06 -2.86 -0.06 -4.24 0 l0 -0.38 c1.02 -0.12 1.4 -0.24 1.4 -0.74 l0 -10.18 c0 -0.5 -0.38 -0.62 -1.4 -0.74 l0 -0.38 c1.38 0.06 2.86 0.06 4.24 0 l0 0.38 c-1.02 0.12 -1.4 0.24 -1.4 0.74 l0 10.18 z M521.9124999999998 7.26 c3.28 0 5.48 2.94 5.48 6.48 c0 3.64 -2.06 6.48 -5.34 6.48 s-5.48 -2.94 -5.48 -6.48 c0 -3.64 2.06 -6.48 5.34 -6.48 z M522.2124999999999 19.78 c1.72 0 3.62 -1.1 3.62 -5.44 c0 -3.94 -1.8 -6.64 -4.24 -6.64 c-1.56 0 -3.46 1.1 -3.46 5.44 c0 3.94 1.8 6.64 4.08 6.64 z M540.7499999999999 7.58 c1.28 0.06 2.58 0.06 3.9 0 l0 0.38 c-1.28 0.14 -1.7 0.24 -1.7 0.74 l0 11.3 l-0.36 0 l-7.04 -11.08 l0 9.96 c0 0.5 0.42 0.6 1.64 0.74 l0 0.38 c-1.28 -0.06 -2.56 -0.06 -3.9 0 l0 -0.38 c1.36 -0.14 1.72 -0.24 1.72 -0.74 l0 -10.14 c0 -0.58 -0.46 -0.66 -1.48 -0.78 l0 -0.38 c0.98 0.06 1.94 0.06 2.94 0 l5.94 9.44 l0 -8.32 c0 -0.5 -0.36 -0.6 -1.66 -0.74 l0 -0.38 z"></path></g>
			</g>
		</svg>
	