
        <svg xmlns="http://www.w3.org/2000/svg" xmlns:xlink="http://www.w3.org/1999/xlink" version="1.1" width="3272.727272727273" 
        height="2550.1370387175803" viewBox="0 0 3272.727272727273 2550.1370387175803">
			<rect fill="#048998" width="3272.727272727273" height="2550.1370387175803"/>
			<g transform="scale(13.636363636363637) translate(10, 10)">
				<defs id="SvgjsDefs8259"><linearGradient id="SvgjsLinearGradient8266"><stop id="SvgjsStop8267" stop-color="#b88746" offset="0"></stop><stop id="SvgjsStop8268" stop-color="#fdf5a6" offset="1"></stop></linearGradient></defs><g id="SvgjsG8260" featureKey="CGau9U-0" transform="matrix(1.1111111111111112,0,0,1.1111111111111112,60,0)" fill="url(#SvgjsLinearGradient8266)"><path xmlns="http://www.w3.org/2000/svg" fill="url(#SvgjsLinearGradient8266)" d="M89.209,0.791C88.707,0.288,88.011,0,87.3,0H2.7C1.988,0,1.293,0.288,0.79,0.791C0.288,1.293,0,1.988,0,2.7  v84.6c0,0.712,0.288,1.407,0.792,1.908C1.293,89.712,1.988,90,2.7,90h84.6c0.711,0,1.407-0.288,1.909-0.792  C89.711,88.707,90,88.01,90,87.3V2.7C90,1.99,89.711,1.295,89.209,0.791z M84.6,45.02h-9.925c2.114,2.121,3.424,5.048,3.424,8.279  c0,6.479-5.251,11.729-11.729,11.729S54.64,59.777,54.64,53.298c0-3.23,1.31-6.157,3.427-8.278H44.979v-0.002h0.045V31.931  c2.121,2.116,5.047,3.425,8.28,3.425c6.479,0,11.728-5.251,11.728-11.729c0-6.479-5.249-11.73-11.728-11.73  c-3.232,0-6.159,1.31-8.28,3.424V5.398h39.574L84.6,45.02z M5.398,44.982h9.928c-2.114-2.121-3.424-5.048-3.424-8.28  c0-6.479,5.251-11.728,11.73-11.728c6.478,0,11.729,5.25,11.729,11.728c0,3.232-1.309,6.159-3.426,8.28h13.087v0.002h-0.045v13.087  c-2.121-2.116-5.048-3.425-8.28-3.425c-6.479,0-11.728,5.251-11.728,11.729c0,6.479,5.249,11.729,11.728,11.729  c3.232,0,6.159-1.311,8.28-3.425v9.92H5.398V44.982z"></path></g><g id="SvgjsG8261" featureKey="zSuAwM-0" transform="matrix(1.4608233139697349,0,0,1.4608233139697349,-0.7304109604100297,114.36122216132328)" fill="#ffffff"><path d="M4.56 7.58 c4 0 6.58 1.98 6.58 6.2 c0 3.74 -2.44 6.22 -5.74 6.22 c-1.02 0 -1.96 -0.26 -2.54 -0.26 c-0.78 0 -1.32 0.02 -2.36 0.26 l0 -0.4 c1 -0.26 1.36 -0.42 1.36 -0.92 l0 -9.54 c0 -0.58 -0.22 -1.06 -1.36 -1.18 l0 -0.38 c1.64 0.08 2.58 0 4.06 0 z M5.26 19.46 c3.28 0.08 4.38 -2.28 4.38 -5.62 c0 -3.04 -1.32 -5.88 -4.78 -5.8 c-0.46 0 -0.94 0 -1.56 0.04 l0 10.28 c0 0.86 0.82 1.08 1.96 1.1 z M16.36 5.4 c-0.4 0 -0.78 -0.34 -0.78 -0.78 c0 -0.4 0.38 -0.76 0.78 -0.76 s0.8 0.36 0.8 0.76 c0 0.44 -0.4 0.78 -0.8 0.78 z M19.7 5.4 c-0.4 0 -0.78 -0.34 -0.78 -0.78 c0 -0.4 0.38 -0.76 0.78 -0.76 c0.42 0 0.8 0.36 0.8 0.76 c0 0.44 -0.38 0.78 -0.8 0.78 z M17.98 7.26 c3.28 0 5.48 2.94 5.48 6.48 c0 3.64 -2.06 6.48 -5.34 6.48 s-5.48 -2.94 -5.48 -6.48 c0 -3.64 2.06 -6.48 5.34 -6.48 z M18.28 19.78 c1.72 0 3.62 -1.1 3.62 -5.44 c0 -3.94 -1.8 -6.64 -4.24 -6.64 c-1.56 0 -3.46 1.1 -3.46 5.44 c0 3.94 1.8 6.64 4.08 6.64 z M31.52 17.259999999999998 c1.14 1.5 2.44 2.48 3.08 2.52 l-0.3 0.38 c-1.72 0 -2.72 -0.98 -4.06 -2.62 l-2.14 -2.68 c-0.08 0 -0.16 0.02 -0.24 0.02 l-0.6 0.06 l0 3.96 c0 0.5 0.34 0.64 1.36 0.72 l0 0.38 c-1.38 -0.06 -2.78 -0.06 -4.16 0 l0 -0.38 c1.02 -0.08 1.36 -0.22 1.36 -0.72 l0 -9.68 c0 -0.62 -0.22 -1.14 -1.36 -1.26 l0 -0.38 c1.64 0.08 3.38 0 4.72 0 c3.9 0 4.6 1.82 4.6 3.34 c0 1.36 -1 3 -4.22 3.7 z M27.26 14.48 l0.7 -0.1 c3.4 -0.46 4.22 -1.88 4.22 -3.54 c0 -1.42 -0.84 -2.76 -2.9 -2.76 l-2.02 0 l0 6.4 z M38.239999999999995 18.88 c0 0.5 0.38 0.62 1.4 0.74 l0 0.38 c-1.38 -0.06 -2.86 -0.06 -4.24 0 l0 -0.38 c1.02 -0.12 1.4 -0.24 1.4 -0.74 l0 -10.18 c0 -0.5 -0.38 -0.62 -1.4 -0.74 l0 -0.38 c1.38 0.06 2.86 0.06 4.24 0 l0 0.38 c-1.02 0.12 -1.4 0.24 -1.4 0.74 l0 10.18 z M47.9 7.58 c1.28 0.06 2.58 0.06 3.9 0 l0 0.38 c-1.28 0.14 -1.7 0.24 -1.7 0.74 l0 11.3 l-0.36 0 l-7.04 -11.08 l0 9.96 c0 0.5 0.42 0.6 1.64 0.74 l0 0.38 c-1.28 -0.06 -2.56 -0.06 -3.9 0 l0 -0.38 c1.36 -0.14 1.72 -0.24 1.72 -0.74 l0 -10.14 c0 -0.58 -0.46 -0.66 -1.48 -0.78 l0 -0.38 c0.98 0.06 1.94 0.06 2.94 0 l5.94 9.44 l0 -8.32 c0 -0.5 -0.36 -0.6 -1.66 -0.74 l0 -0.38 z M58.96 14.16 c1.24 0.04 3.18 0.04 4.28 -0.04 l0 0.38 l-0.54 0.1 c-0.9 0.16 -0.78 1.02 -0.78 2.66 c0 0.62 0.02 1.28 0.06 1.78 l0.38 0.04 c0.06 0.02 0.08 0.08 0.08 0.1 l0 0.4 c-0.28 -0.06 -0.56 -0.06 -0.74 -0.06 c-1.2 0 -1.74 0.7 -3.96 0.7 c-3.36 0 -5.64 -2.94 -5.64 -6.52 c0 -3.64 2.14 -6.44 5.4 -6.44 c1.36 0 1.64 0.34 2.9 0.34 l0.42 0 c0.26 1.12 0.54 2.12 1.1 3.36 l-0.64 0 c-0.82 -2.08 -1.88 -3.26 -4.12 -3.26 c-1.52 0 -3.5 1.1 -3.5 5.44 c0 3.94 1.88 6.64 4.12 6.64 c2.72 0 2.78 -0.88 2.78 -3.6 c0 -1.34 0.1 -1.52 -1.14 -1.62 l-0.46 -0.06 l0 -0.34 z M78.30000000000001 16.66 l0.5 0 c-0.44 1.72 -1.64 3.56 -4.5 3.56 c-3.24 0 -5.56 -2.94 -5.56 -6.52 c0 -3.64 2.14 -6.44 5.42 -6.44 c1.4 0 1.7 0.34 2.96 0.34 l0.42 0 c0.26 1.12 0.54 2.12 1.1 3.36 l-0.64 0 c-0.82 -2.08 -2 -3.26 -4.36 -3.26 c-1.36 0 -3.34 1.1 -3.34 5.44 c0 3.98 1.74 6.54 4.06 6.54 c2.12 0 3.3 -1.06 3.94 -3.02 z M83.84 9.82 c2.36 0 4.34 1.98 4.34 5.08 c0 3.26 -1.98 5.3 -4.24 5.3 c-2.36 0 -4.34 -2.04 -4.34 -5.14 c0 -3.26 1.98 -5.24 4.24 -5.24 z M86.58 15.26 c0 -2.9 -1.18 -5.02 -3.04 -5.02 c-1.46 0 -2.38 1.26 -2.38 4.42 c0 2.96 1.18 5.08 3.04 5.08 c1.44 0 2.38 -1.28 2.38 -4.48 z M97.58 18.88 c0 0.5 0.54 0.66 1.14 0.74 l0 0.38 c-1.2 -0.06 -2.44 -0.06 -3.66 0 l0 -0.38 c0.62 -0.1 1.14 -0.24 1.14 -0.74 l0 -5.72 c0 -1.68 -0.4 -2.76 -1.54 -2.76 c-1.6 0 -2.78 1.48 -3.02 1.8 l0 6.68 c0 0.5 0.54 0.64 1.14 0.74 l0 0.38 c-1.22 -0.06 -2.44 -0.06 -3.66 0 l0 -0.38 c0.62 -0.08 1.12 -0.24 1.12 -0.74 l0 -7.26 c0 -0.62 -0.36 -0.82 -1.16 -0.74 l0 -0.38 c1.3 -0.18 1.88 -0.7 2.22 -0.7 c0.2 0 0.36 0.12 0.34 0.34 l-0.18 1.76 c0.34 -0.52 1.66 -2.1 3.46 -2.1 c1.7 0 2.66 0.7 2.66 3.4 l0 5.68 z M106.11999999999999 17.36 c0 1.64 -1.5 2.82 -2.84 2.82 c-1.24 0 -1.8 -0.64 -2.56 -0.64 c-0.34 0 -0.52 0.22 -0.58 0.44 l-0.36 0 l-0.22 -2.6 l0.12 0 c0.2 0 0.44 0 0.46 0.22 c0.22 1.16 2 2.14 3.04 2.14 c1.02 0 1.66 -0.7 1.66 -1.7 c0 -1.26 -1.08 -1.76 -2.78 -2.68 c-1.54 -0.84 -2.44 -1.76 -2.44 -3.14 c0 -1.2 1.04 -2.4 2.68 -2.4 c1.18 0 1.62 0.56 2.2 0.56 c0.2 0 0.38 -0.12 0.48 -0.4 l0.38 0 l0.18 2.4 l-0.18 0 c-0.22 0 -0.24 -0.08 -0.32 -0.22 c-0.56 -1.02 -1.72 -1.96 -2.68 -1.96 c-1.08 0 -1.56 0.82 -1.56 1.62 c0 1.04 0.66 1.54 1.98 2.26 c1.32 0.7 3.34 1.56 3.34 3.28 z M115.41999999999999 18.42 c0 0.66 0.36 0.8 1.14 0.72 l0 0.4 c-1.38 0.3 -1.7 0.68 -2.24 0.68 c-0.18 0 -0.28 -0.16 -0.26 -0.36 l0.16 -2.1 c-0.4 0.54 -1.6 2.46 -3.36 2.46 c-1.68 0 -2.78 -0.78 -2.78 -3.48 l0 -5.46 c0 -0.58 -0.16 -0.78 -0.56 -0.76 l-0.6 0.02 l0 -0.44 l2.14 -0.2 c0.26 -0.02 0.4 0.06 0.4 0.32 l0 6.66 c0 1.66 0.48 2.66 1.68 2.66 c1.66 0 2.66 -1.82 2.88 -2.2 l0 -6.06 c0 -0.58 -0.12 -0.78 -0.52 -0.76 l-0.64 0.02 l0 -0.44 l2.14 -0.2 c0.34 -0.02 0.42 0.06 0.42 0.32 l0 8.2 z M119.31999999999998 18.7 c0 0.66 0.36 0.86 1.14 0.74 l0 0.36 c-1.38 0.32 -1.72 0.42 -2.22 0.42 c-0.2 0 -0.32 -0.12 -0.32 -0.36 l0 -11.86 c0 -0.62 -0.36 -0.82 -1.16 -0.74 l0 -0.38 c1.3 -0.18 1.88 -0.7 2.24 -0.7 c0.18 0 0.32 0.1 0.32 0.38 l0 12.14 z M126.01999999999998 19.36 c-0.26 0.34 -0.94 0.78 -1.7 0.78 c-1.14 0 -2.06 -0.52 -2.06 -2.28 l0 -7.4 l-0.96 0 c-0.06 0 -0.14 -0.06 -0.14 -0.12 l0 -0.24 c0 -0.06 0.08 -0.12 0.14 -0.12 c1.12 0 1.6 -0.78 1.88 -2.72 l0.46 0 l0 2.72 l2.3 0 c0.06 0 0.14 0.06 0.14 0.12 l0 0.24 c0 0.06 -0.08 0.12 -0.14 0.12 l-2.3 0 l0 7.78 c0 0.64 0.26 1.3 1.08 1.3 c0.7 0 1.12 -0.48 1.3 -0.78 l0 0.6 z M128.77999999999997 7.800000000000001 c-0.42 0 -0.8 -0.34 -0.8 -0.78 c0 -0.4 0.38 -0.76 0.8 -0.76 c0.4 0 0.8 0.36 0.8 0.76 c0 0.44 -0.4 0.78 -0.8 0.78 z M129.64 18.88 c0 0.5 0.54 0.66 1.14 0.74 l0 0.38 c-1.24 -0.06 -2.44 -0.06 -3.68 0 l0 -0.38 c0.64 -0.08 1.14 -0.24 1.14 -0.74 l0 -7.38 c0 -0.62 -0.36 -0.82 -1.16 -0.8 l0 -0.38 c1.32 -0.16 1.86 -0.54 2.18 -0.54 c0.28 0 0.5 0.08 0.5 0.44 c0 0.38 -0.12 1.06 -0.12 2.28 l0 6.38 z M139.98 18.88 c0 0.5 0.54 0.66 1.14 0.74 l0 0.38 c-1.2 -0.06 -2.44 -0.06 -3.66 0 l0 -0.38 c0.62 -0.1 1.14 -0.24 1.14 -0.74 l0 -5.72 c0 -1.68 -0.4 -2.76 -1.54 -2.76 c-1.6 0 -2.78 1.48 -3.02 1.8 l0 6.68 c0 0.5 0.54 0.64 1.14 0.74 l0 0.38 c-1.22 -0.06 -2.44 -0.06 -3.66 0 l0 -0.38 c0.62 -0.08 1.12 -0.24 1.12 -0.74 l0 -7.26 c0 -0.62 -0.36 -0.82 -1.16 -0.74 l0 -0.38 c1.3 -0.18 1.88 -0.7 2.22 -0.7 c0.2 0 0.36 0.12 0.34 0.34 l-0.18 1.76 c0.34 -0.52 1.66 -2.1 3.46 -2.1 c1.7 0 2.66 0.7 2.66 3.4 l0 5.68 z M150.29999999999998 9.84 c0.8 0 0.8 0.26 0.8 0.7 c0 0.46 -0.14 0.58 -0.48 0.54 c-0.42 -0.06 -0.64 -0.12 -0.82 -0.12 c-0.48 0 -0.58 0.32 -0.44 0.66 c0.24 0.54 0.38 1.08 0.38 1.7 c0 1.82 -1.32 3.58 -3.62 3.58 c-0.74 0 -1.38 -0.28 -2.14 -0.28 c-0.68 0 -0.94 0.34 -0.94 0.66 c0 0.56 0.76 0.78 2.02 0.98 l2.56 0.38 c2.04 0.32 3.06 0.98 3.06 2.6 c0 1.88 -1.96 3.1 -4.38 3.1 c-2.64 0 -4.34 -1.06 -4.34 -2.92 c0 -0.78 0.22 -1.5 0.98 -1.5 c0.5 0 0.68 0.28 0.68 0.64 c0 0.48 -0.2 0.66 -0.2 1.5 c0 0.98 1.12 1.88 2.9 1.88 c2.32 0 3.14 -1.1 3.14 -2.54 c0 -1.06 -0.66 -1.32 -2.02 -1.56 l-2.92 -0.46 c-1.9 -0.34 -2.5 -0.92 -2.5 -1.72 c0 -0.86 0.82 -1.5 2.2 -1.34 c-1.06 -0.62 -1.78 -1.72 -1.78 -3 c0 -1.8 1.12 -3.5 3.6 -3.5 c1.6 0 2.48 0.78 2.94 1.38 c0.16 -0.78 0.54 -1.36 1.32 -1.36 z M146.1 16.46 c1.62 0 2.2 -1.64 2.2 -3.1 s-0.6 -3.12 -2.2 -3.12 c-1.58 0 -2.2 1.66 -2.2 3.12 s0.6 3.1 2.2 3.1 z"></path></g><g id="SvgjsG8262" featureKey="fF8Cqn-0" transform="matrix(0.5080886750459459,0,0,0.5080886750459459,17.397208594748662,156.7878585372809)" fill="#ffffff"><path d="M6.322 6.441000000000001 c3.0846 0 4.6437 2.4407 4.6437 4.4576 c0 2.0847 -1.5593 4.4746 -4.6439 4.4746 l-3.7966 0 l0 4.3898 c0 0.15254 -0.067797 0.23712 -0.20339 0.23712 l-0.91525 0 c-0.15238 0 -0.22017 -0.08458 -0.22017 -0.23712 l0 -13.102 c0 -0.15254 0.067797 -0.22034 0.22017 -0.22034 l4.9154 0 z M6.271 14.1019 c2.1864 0 3.3559 -1.6102 3.3559 -3.2034 s-1.1695 -3.1695 -3.3559 -3.1695 l-3.7456 0 l0 6.3729 l3.7456 0 z M28.512254237288133 19.76288 c0.084746 0.13559 0.033732 0.23712 -0.11881 0.23712 l-0.88136 0 c-0.27119 0 -0.45763 -0.22017 -0.55932 -0.37271 l-3 -4.2542 l-0.050847 0 l-3.8814 0 l0 4.3898 c0 0.15254 -0.067797 0.23712 -0.23729 0.23712 l-0.88136 0 c-0.15254 0 -0.22034 -0.08458 -0.22034 -0.23712 l0 -13.102 c0 -0.15254 0.067797 -0.22034 0.22034 -0.22034 l5 0 c3.1695 0 4.6273 2.4576 4.6273 4.4746 c0 1.7288 -1.0508 3.7288 -3.2712 4.3051 z M20.021054237288133 7.728999999999999 l0.00016552 6.3727 l3.7797 0 c2.3051 0 3.4066 -1.6102 3.4066 -3.2203 c0 -1.5932 -1.1186 -3.1524 -3.4068 -3.1524 l-3.7797 0 z M43.533947457627114 20.11864 c3.8305 0 6.9492 -3.0337 6.9492 -6.8981 c0 -3.8475 -3.1186 -6.8983 -6.9492 -6.8983 c-3.8475 0 -6.9661 3.0508 -6.9661 6.8983 c0 3.8644 3.1186 6.8981 6.9661 6.8981 z M43.533947457627114 18.8307 c-3.0847 0 -5.6441 -2.5085 -5.6441 -5.6102 s2.5593 -5.6102 5.6441 -5.6102 c3.0846 0 5.61 2.5085 5.61 5.6102 s-2.5254 5.6102 -5.61 5.6102 z M70.35167796610169 17.729 c0.11864 0.08458 0.084746 0.22017 -0.067797 0.37271 c-1.2544 1.2542 -2.8814 2.0168 -4.8983 2.0168 c-3.8136 0 -6.9322 -3.0168 -6.9322 -6.8812 c0 -3.8475 3.1186 -6.9153 6.9322 -6.9153 c1.9322 0 3.661 0.74576 4.9322 2.0169 c0.15254 0.15254 0.16949 0.27119 0.067797 0.35593 l-0.71186 0.59322 c-0.11864 0.10169 -0.22034 0.10169 -0.33898 -0.016949 c-0.71186 -0.74559 -2.1186 -1.6608 -3.8475 -1.6608 c-3.678 0 -5.7119 2.9831 -5.7119 5.6271 c0 2.678 2.0339 5.5932 5.7119 5.5932 c1.7288 0 3.0508 -0.88136 3.7966 -1.6271 c0.13559 -0.13559 0.23729 -0.16949 0.35593 -0.067797 z M89.06772881355931 6.441000000000001 l-0.89797 0 c-0.16949 0 -0.23729 0.050847 -0.23729 0.22051 l0 8.1524 c0 2.8305 -2.1186 4.0169 -4.0341 4.0169 c-1.8644 0 -3.9492 -1.1864 -3.9492 -4.0169 l0 -8.1524 c0 -0.15254 -0.067797 -0.22034 -0.22034 -0.22034 l-0.88136 0 c-0.16949 0 -0.23729 0.067797 -0.23729 0.22034 l0 8.3388 c0.016784 2.7292 1.9659 5.1186 5.288 5.1186 c3.339 0 5.3559 -2.3895 5.3729 -5.1186 l0 -8.3388 c0 -0.16966 -0.067797 -0.22051 -0.20339 -0.22051 z M107.56310169491523 19.76288 c0.084746 0.13559 0.033732 0.23712 -0.11881 0.23712 l-0.88136 0 c-0.27119 0 -0.45763 -0.22017 -0.55932 -0.37271 l-3 -4.2542 l-0.050847 0 l-3.8814 0 l0 4.3898 c0 0.15254 -0.067797 0.23712 -0.23729 0.23712 l-0.88136 0 c-0.15254 0 -0.22034 -0.08458 -0.22034 -0.23712 l0 -13.102 c0 -0.15254 0.067797 -0.22034 0.22034 -0.22034 l5 0 c3.1695 0 4.6273 2.4576 4.6273 4.4746 c0 1.7288 -1.0508 3.7288 -3.2712 4.3051 z M99.07190169491524 7.728999999999999 l0.00016552 6.3727 l3.7797 0 c2.3051 0 3.4066 -1.6102 3.4066 -3.2203 c0 -1.5932 -1.1186 -3.1524 -3.4068 -3.1524 l-3.7797 0 z M124.66928983050848 7.728999999999999 l-7.3556 0.00049656 l0 4.9659 l4.5424 0 c0.15254 0 0.23729 0.067797 0.23729 0.23729 l0 0.81339 c0 0.15254 -0.084746 0.22034 -0.23729 0.22034 l-4.5424 0 l0 4.7458 l7.3559 0 c0.15254 0 0.23712 0.084746 0.23712 0.23712 l0 0.81356 c0 0.16949 -0.067797 0.23712 -0.23729 0.23712 l-8.4746 0 c-0.15254 0 -0.22034 -0.08458 -0.22034 -0.22017 l0 -13.119 c0 -0.15254 0.084746 -0.22034 0.22034 -0.22034 l8.4746 0 c0.15254 0 0.23712 0.084746 0.23712 0.22034 l0 0.84746 c0 0.13559 -0.067797 0.22034 -0.23729 0.22034 z M148.74145762711865 6.441000000000001 c0.11864 0 0.20339 0.10186 0.20339 0.23746 l0 13.085 c0 0.15254 -0.084746 0.23712 -0.22034 0.23712 l-0.88136 0 c-0.16949 0 -0.23729 -0.08458 -0.23729 -0.23712 l0 -10.61 l-6.1697 10.407 c-0.067797 0.11864 -0.13559 0.16949 -0.25424 0.16949 l-0.067797 0 c-0.10169 0 -0.18644 -0.050847 -0.25424 -0.16949 l-6.1525 -10.407 l0 10.61 c0 0.15254 -0.084746 0.23712 -0.22034 0.23712 l-0.88136 0 c-0.15254 0 -0.23729 -0.08458 -0.23729 -0.23712 l0 -13.102 c0 -0.11881 0.067797 -0.22051 0.20339 -0.22051 l0.81356 0 c0.11864 0 0.18644 0.050847 0.25424 0.15271 l6.5086 10.983 l6.5254 -10.983 c0.050847 -0.10186 0.11864 -0.15271 0.27119 -0.15271 l0.79661 0 z M166.37267966101695 7.728999999999999 l-7.3556 0.00049656 l0 4.9659 l4.5424 0 c0.15254 0 0.23729 0.067797 0.23729 0.23729 l0 0.81339 c0 0.15254 -0.084746 0.22034 -0.23729 0.22034 l-4.5424 0 l0 4.7458 l7.3559 0 c0.15254 0 0.23712 0.084746 0.23712 0.23712 l0 0.81356 c0 0.16949 -0.067797 0.23712 -0.23729 0.23712 l-8.4746 0 c-0.15254 0 -0.22034 -0.08458 -0.22034 -0.22017 l0 -13.119 c0 -0.15254 0.084746 -0.22034 0.22034 -0.22034 l8.4746 0 c0.15254 0 0.23712 0.084746 0.23712 0.22034 l0 0.84746 c0 0.13559 -0.067797 0.22034 -0.23729 0.22034 z M186.4788474576271 6.441000000000001 c0.11864 0 0.20356 0.067631 0.20356 0.18627 l0 13.186 c0 0.11881 -0.084746 0.18644 -0.20339 0.18644 l-0.35593 0 c-0.25441 0 -0.49169 -0.16933 -0.81373 -0.52525 l-8.9153 -10.525 l0 10.831 c0 0.13559 -0.084746 0.22017 -0.22034 0.22017 l-0.88136 0 c-0.15254 0 -0.22034 -0.08458 -0.22034 -0.22017 l0 -13.136 c0 -0.11864 0.067797 -0.20339 0.20339 -0.20339 l0.55932 0 c0.11864 0 0.20339 0.050847 0.32203 0.18644 l9.2034 10.932 l0 -10.932 c0 -0.11864 0.067797 -0.18644 0.18644 -0.18644 l0.9322 0 z M205.22906779661017 6.441000000000001 c0.15254 0 0.22051 0.067797 0.22051 0.22034 l0 0.84746 c0 0.13559 -0.067797 0.22034 -0.22034 0.22034 l-4.3729 0 l0 12.034 c0 0.15254 -0.067797 0.23712 -0.20339 0.23712 l-0.67797 0 c-0.30508 0 -0.45763 -0.18644 -0.45763 -0.47441 l0 -11.797 l-4.3729 0 c-0.15254 0 -0.23729 -0.084746 -0.23729 -0.22034 l0 -0.83051 c0 -0.16949 0.084746 -0.23729 0.23729 -0.23729 l10.085 0 z M237.15274576271187 19.77983 c0.067797 0.13559 0.034229 0.22017 -0.11831 0.22017 l-1.0339 0 c-0.11864 0 -0.18644 -0.050847 -0.23729 -0.15254 l-1.1864 -2.5254 l-8.1864 0 l-1.1864 2.5254 c-0.050847 0.10169 -0.11848 0.15254 -0.22034 0.15254 l-1.0678 0 c-0.11864 0 -0.18644 -0.08458 -0.11864 -0.22017 l6.3558 -13.271 c0.067797 -0.11864 0.11864 -0.15254 0.20322 -0.15254 l0.23745 0 c0.084746 0 0.15254 0.033898 0.20339 0.15254 z M226.96624576271185 16.1019 l7.0339 0 l-3.5254 -7.4576 z M249.86848474576271 6.441000000000001 c4.6271 0 6.9153 3.4239 6.9153 6.6949 c0 3.4576 -2.3051 6.8642 -6.8644 6.8642 l-4.6271 0 c-0.15254 0 -0.22034 -0.08458 -0.22034 -0.22017 l0 -13.119 c0 -0.15254 0.067797 -0.22034 0.22034 -0.22034 l4.5763 0 z M249.9870847457627 18.7122 c3.5422 0 5.4576 -2.7798 5.4407 -5.5764 c0 -2.7797 -1.8644 -5.4066 -5.4407 -5.4066 l-3.5932 0 l0.016949 10.983 l3.5763 0 z M277.34777966101694 6.441000000000001 c0.11864 0 0.23763 0.11881 0.15287 0.30525 l-6.2544 13.153 c-0.050847 0.10153 -0.13559 0.16933 -0.25424 0.16933 l-0.13559 0 c-0.10169 0 -0.18644 -0.067797 -0.23729 -0.16933 l-6.2542 -13.169 c-0.084746 -0.16966 0.033898 -0.28831 0.15254 -0.28831 l1.1356 0 c0.13559 0 0.18644 0.10169 0.25424 0.27119 l5.0168 10.864 l5.0339 -10.864 c0.067797 -0.16949 0.11864 -0.27119 0.25424 -0.27119 l1.1356 0 z M286.5890050847458 6.441000000000001 l-0.86441 0 c-0.15254 0 -0.22034 0.067797 -0.22034 0.22034 l0 13.119 c0 0.13559 0.067797 0.22017 0.22034 0.22017 l0.88136 0 c0.11864 0 0.20339 -0.08458 0.20339 -0.22017 l0 -13.119 c0 -0.15254 -0.084746 -0.22034 -0.22034 -0.22034 z M295.20339220338985 17.729 l0.47441 -0.55932 c0.15238 -0.15254 0.30492 -0.13559 0.44051 -0.033898 c0.32203 0.27119 1.6441 1.7119 3.5254 1.7119 c2.2373 0 3.2203 -1.2203 3.2203 -2.4237 c0 -1.7288 -1.9663 -2.1864 -3.7459 -2.8305 c-2.0169 -0.76271 -3.7458 -1.678 -3.7458 -3.7119 c0 -1.6949 1.2373 -3.5593 4.2712 -3.5593 c2.0847 0 3.5932 1.2542 4 1.6102 c0.13559 0.11864 0.18644 0.27119 0.084912 0.40678 l-0.44068 0.57627 c-0.10169 0.13559 -0.23729 0.16949 -0.38983 0.067797 c-0.33898 -0.25424 -1.5592 -1.3898 -3.2371 -1.3898 c-1.8985 0 -2.9663 1 -2.9663 2.288 c0 1.4915 1.5086 2.0169 3.4917 2.7288 c1.8136 0.67797 4 1.5932 4 3.8305 c0 1.9661 -1.8303 3.6608 -4.5253 3.6608 c-2.4746 0 -4 -1.61 -4.3898 -1.9998 c-0.11864 -0.11864 -0.22034 -0.22034 -0.067797 -0.37271 z M319.12293050847455 20.11864 c3.8305 0 6.9492 -3.0337 6.9492 -6.8981 c0 -3.8475 -3.1186 -6.8983 -6.9492 -6.8983 c-3.8475 0 -6.9661 3.0508 -6.9661 6.8983 c0 3.8644 3.1186 6.8981 6.9661 6.8981 z M319.12293050847455 18.8307 c-3.0847 0 -5.6441 -2.5085 -5.6441 -5.6102 s2.5593 -5.6102 5.6441 -5.6102 c3.0846 0 5.61 2.5085 5.61 5.6102 s-2.5254 5.6102 -5.61 5.6102 z M344.12666101694913 19.76288 c0.084746 0.13559 0.033732 0.23712 -0.11881 0.23712 l-0.88136 0 c-0.27119 0 -0.45763 -0.22017 -0.55932 -0.37271 l-3 -4.2542 l-0.050847 0 l-3.8814 0 l0 4.3898 c0 0.15254 -0.067797 0.23712 -0.23729 0.23712 l-0.88136 0 c-0.15254 0 -0.22034 -0.08458 -0.22034 -0.23712 l0 -13.102 c0 -0.15254 0.067797 -0.22034 0.22034 -0.22034 l5 0 c3.1695 0 4.6273 2.4576 4.6273 4.4746 c0 1.7288 -1.0508 3.7288 -3.2712 4.3051 z M335.63546101694914 7.728999999999999 l0.00016552 6.3727 l3.7797 0 c2.3051 0 3.4066 -1.6102 3.4066 -3.2203 c0 -1.5932 -1.1186 -3.1524 -3.4068 -3.1524 l-3.7797 0 z M363.21606779661016 6.441000000000001 c0.08458 0 0.15188 0.10169 0.084083 0.20339 l-5.4064 7.7458 l0 5.3729 c0 0.15254 -0.067797 0.23712 -0.20339 0.23712 l-0.67797 0 c-0.28814 0 -0.44068 -0.18644 -0.44068 -0.47441 l0 -5.1356 l-5.4068 -7.7458 c-0.050847 -0.10169 0 -0.20339 0.10186 -0.20339 l1.1864 0 c0.10169 0 0.15254 0.067797 0.20339 0.16949 l4.5763 6.4746 l4.5764 -6.4746 c0.067797 -0.10169 0.10169 -0.16949 0.20339 -0.16949 l1.2034 0 z"></path></g>
			</g>
		</svg>
	